<svg xmlns="http://www.w3.org/2000/svg" xmlns:xlink="http://www.w3.org/1999/xlink" viewBox="0 0 430 430" width="430" height="430" preserveAspectRatio="xMidYMid meet" style="width: 100%; height: 100%; transform: translate3d(0px, 0px, 0px); content-visibility: visible;"><defs><clipPath id="__lottie_element_2"><rect width="430" height="430" x="0" y="0"/></clipPath><clipPath id="__lottie_element_4"><path d="M0,0 L430,0 L430,430 L0,430z"/></clipPath><clipPath id="__lottie_element_9"><path d="M0,0 L430,0 L430,430 L0,430z"/></clipPath></defs><g clip-path="url(#__lottie_element_2)"><g clip-path="url(#__lottie_element_4)" transform="matrix(1,0,0,1,0,0)" opacity="1" style="display: block;"><g clip-path="url(#__lottie_element_9)" transform="matrix(1,0,0,1,0,0)" opacity="1" style="display: block;"><g transform="matrix(1,0,0,1,265.8349914550781,196.0659942626953)" opacity="1" style="display: block;"><g opacity="1" transform="matrix(1,0,0,1,0,0)"><path class="tertiary" fill="rgb(255,199,56)" fill-opacity="1" d=" M-75.93399810791016,0 C-75.93399810791016,41.9370002746582 -41.9370002746582,75.93399810791016 0,75.93399810791016 C41.9370002746582,75.93399810791016 75.93399810791016,41.9370002746582 75.93399810791016,0 C75.93399810791016,-41.9370002746582 41.9370002746582,-75.93399810791016 0,-75.93399810791016 C-41.9370002746582,-75.93399810791016 -75.93399810791016,-41.9370002746582 -75.93399810791016,0z"/><path stroke-linecap="round" stroke-linejoin="round" fill-opacity="0" class="primary" stroke="rgb(18,19,49)" stroke-opacity="1" stroke-width="10.5" d=" M-75.93399810791016,0 C-75.93399810791016,41.9370002746582 -41.9370002746582,75.93399810791016 0,75.93399810791016 C41.9370002746582,75.93399810791016 75.93399810791016,41.9370002746582 75.93399810791016,0 C75.93399810791016,-41.9370002746582 41.9370002746582,-75.93399810791016 0,-75.93399810791016 C-41.9370002746582,-75.93399810791016 -75.93399810791016,-41.9370002746582 -75.93399810791016,0z"/></g></g><g transform="matrix(0.7021347880363464,0.7120440006256104,-0.7120440006256104,0.7021347880363464,353.0527648925781,284.5146789550781)" opacity="1" style="display: block;"><g opacity="1" transform="matrix(1,0,0,1,0,0)"><path stroke-linecap="round" stroke-linejoin="round" fill-opacity="0" class="primary" stroke="rgb(18,19,49)" stroke-opacity="1" stroke-width="10.5" d=" M-17.56999969482422,0 C-7.0269999504089355,0 4.889999866485596,0 15.593999862670898,0"/></g></g><g transform="matrix(0.999943733215332,0.01061033084988594,-0.01061033084988594,0.999943733215332,390.0459899902344,197.3839874267578)" opacity="1" style="display: block;"><g opacity="1" transform="matrix(1,0,0,1,0,0)"><path stroke-linecap="round" stroke-linejoin="round" fill-opacity="0" class="primary" stroke="rgb(18,19,49)" stroke-opacity="1" stroke-width="10.5" d=" M-18.209999084472656,0 C-7.486000061035156,0 4.729000091552734,0 15.668999671936035,0"/></g></g><g transform="matrix(0.7173256278038025,-0.696738064289093,0.696738064289093,0.7173256278038025,354.93975830078125,109.5185775756836)" opacity="1" style="display: block;"><g opacity="1" transform="matrix(1,0,0,1,0,0)"><path stroke-linecap="round" stroke-linejoin="round" fill-opacity="0" class="primary" stroke="rgb(18,19,49)" stroke-opacity="1" stroke-width="10.5" d=" M-18.68000030517578,0 C-7.998000144958496,0 4.218999862670898,0 15.197999954223633,0"/></g></g><g transform="matrix(0.019006771966814995,-0.9998193383216858,0.9998193383216858,0.019006771966814995,268.19598388671875,71.87042999267578)" opacity="1" style="display: block;"><g opacity="1" transform="matrix(1,0,0,1,0,0)"><path stroke-linecap="round" stroke-linejoin="round" fill-opacity="0" class="primary" stroke="rgb(18,19,49)" stroke-opacity="1" stroke-width="10.5" d=" M-19.216999053955078,0 C-8.581000328063965,0 3.63700008392334,0 14.661999702453613,0"/></g></g><g transform="matrix(-0.6899921298027039,-0.7238168716430664,0.7238168716430664,-0.6899921298027039,180.12554931640625,106.1549072265625)" opacity="1" style="display: block;"><g opacity="1" transform="matrix(1,0,0,1,0,0)"><path stroke-linecap="round" stroke-linejoin="round" fill-opacity="0" class="primary" stroke="rgb(18,19,49)" stroke-opacity="1" stroke-width="10.5" d=" M-19.80900001525879,0 C-9.225000381469727,0 2.994999885559082,0 14.069000244140625,0"/></g></g><g transform="matrix(-0.9995717406272888,-0.02926289290189743,0.02926289290189743,-0.9995717406272888,141.67019653320312,192.43101501464844)" opacity="1" style="display: block;"><g opacity="1" transform="matrix(1,0,0,1,0,0)"><path stroke-linecap="round" stroke-linejoin="round" fill-opacity="0" class="primary" stroke="rgb(18,19,49)" stroke-opacity="1" stroke-width="10.5" d=" M-20.450000762939453,0 C-9.92199993133545,0 2.299999952316284,0 13.428999900817871,0"/></g></g></g><g transform="matrix(1.0000014305114746,0,0,1.0000014305114746,59.14025115966797,366.74932861328125)" opacity="1" style="display: block;"><g opacity="1" transform="matrix(1,0,0,1,0,0)"><path class="secondary" fill="rgb(75,179,253)" fill-opacity="1" d=" M196.70799255371094,-157.15899658203125 C182.7469940185547,-187.72900390625 151.91400146484375,-208.97500610351562 116.11000061035156,-208.97500610351562 C83.26300048828125,-208.97500610351562 54.04800033569336,-190.43299865722656 38.76300048828125,-163.86900329589844 C20.68899917602539,-168.17599487304688 3.878999948501587,-152.0709991455078 6.576000213623047,-133.69500732421875 C-8.720999717712402,-125.12200164794922 -19.04599952697754,-108.75199890136719 -19.04599952697754,-89.98600006103516 C-19.04599952697754,-62.32500076293945 3.368000030517578,-39.90999984741211 31.02899932861328,-39.90999984741211 C31.02899932861328,-39.90999984741211 175.19900512695312,-39.90999984741211 175.19900512695312,-39.90999984741211 C208.66600036621094,-39.90999984741211 235.79100036621094,-67.03500366210938 235.79100036621094,-100.50199890136719 C235.79100036621094,-126.39800262451172 219.552001953125,-148.49099731445312 196.70799255371094,-157.15899658203125z"/></g></g><g transform="matrix(1.0000014305114746,0,0,1.0000014305114746,125.4425048828125,242.3080596923828)" opacity="0.5" style="mix-blend-mode: multiply; display: block;"><g opacity="1" transform="matrix(1,0,0,1,0,0)" style="mix-blend-mode: multiply;"><path class="secondary" fill="rgb(75,179,253)" fill-opacity="1" d=" M-17.042713165283203,35.4109992980957 C-17.042713165283203,16.645000457763672 -6.717712879180908,0.2750000059604645 8.579286575317383,-8.29800033569336 C5.88228702545166,-26.673999786376953 22.69228744506836,-42.77899932861328 40.76628875732422,-38.47200012207031 C50.6542854309082,-55.65700149536133 66.58899688720703,-69.47599792480469 85.3489990234375,-77.0979995727539 C74.46900177001953,-81.87200164794922 62.45100021362305,-84.53199768066406 49.80699920654297,-84.53199768066406 C16.959999084472656,-84.53199768066406 -12.255000114440918,-65.98999786376953 -27.540000915527344,-39.42599868774414 C-45.61399841308594,-43.733001708984375 -62.42399978637695,-27.628000259399414 -59.72700119018555,-9.251999855041504 C-75.02400207519531,-0.6790000200271606 -85.3489990234375,15.690999984741211 -85.3489990234375,34.457000732421875 C-85.3489990234375,62.11800003051758 -62.935001373291016,84.53199768066406 -35.27399826049805,84.53199768066406 C-35.27399826049805,84.53199768066406 23.292287826538086,84.53199768066406 23.292287826538086,84.53199768066406 C0.29728689789772034,79.9990005493164 -17.042713165283203,59.737998962402344 -17.042713165283203,35.4109992980957z"/></g></g><g transform="matrix(2.555000066757202,0,0,2.555000066757202,167.14010620117188,242.58399963378906)" opacity="1" style="display: block;"><g opacity="1" transform="matrix(1,0,0,1,0,0)"><path stroke-linecap="round" stroke-linejoin="round" fill-opacity="0" class="primary" stroke="rgb(18,19,49)" stroke-opacity="1" stroke-width="4.199999999999999" d=" M-19.344999313354492,-8.621000289916992 C-19.350000381469727,-8.637999534606934 -19.356000900268555,-8.654999732971191 -19.361000061035156,-8.67199993133545 C-20.702999114990234,-12.916000366210938 -24.65999984741211,-16 -29.347000122070312,-16 M34.58599853515625,-13.411999702453613 C36.375,-9.303000450134277 37.367000579833984,-4.76800012588501 37.367000579833984,0 C37.367000579833984,0 37.37699890136719,3.305999994277954 36.27199935913086,7.453000068664551"/></g></g><g transform="matrix(2.555000066757202,0,0,2.555000066757202,167.14010620117188,242.58399963378906)" opacity="1" style="display: block;"><g opacity="1" transform="matrix(1,0,0,1,0,0)"><path stroke-linecap="round" stroke-linejoin="round" fill-opacity="0" class="primary" stroke="rgb(18,19,49)" stroke-opacity="1" stroke-width="4.199999999999999" d=" M34.66299819946289,-13.180000305175781 C29.535999298095703,-25.198999404907227 17.61400032043457,-33.625 3.7219998836517334,-33.625 C-9.26200008392334,-33.625 -20.518999099731445,-26.26099967956543 -26.121999740600586,-15.486000061035156 C-27.139999389648438,-15.817000389099121 -28.225000381469727,-16 -29.354000091552734,-16 C-35.132999420166016,-16 -39.81700134277344,-11.3149995803833 -39.81700134277344,-5.535999774932861 C-39.81700134277344,-4.76200008392334 -39.72700119018555,-4.010000228881836 -39.56800079345703,-3.2839999198913574 C-45.79499816894531,-0.006000000052154064 -50.047000885009766,6.51800012588501 -50.047000885009766,14.043999671936035 C-50.047000885009766,24.857999801635742 -41.279998779296875,33.625 -30.465999603271484,33.625 C-24.732999801635742,33.625 22.198999404907227,33.625 25.80500030517578,33.625 C39.19300079345703,33.625 50.047000885009766,22.77199935913086 50.047000885009766,9.383999824523926 C50.047000885009766,-0.8769999742507935 43.667999267578125,-9.642000198364258 34.66299819946289,-13.180000305175781z"/></g></g></g></g></svg>