<svg xmlns="http://www.w3.org/2000/svg" xmlns:xlink="http://www.w3.org/1999/xlink" viewBox="0 0 430 430" width="430" height="430" preserveAspectRatio="xMidYMid meet" style="width: 100%; height: 100%; transform: translate3d(0px, 0px, 0px); content-visibility: visible;"><defs><clipPath id="__lottie_element_2942"><rect width="430" height="430" x="0" y="0"/></clipPath><clipPath id="__lottie_element_2944"><path d="M0,0 L430,0 L430,430 L0,430z"/></clipPath><clipPath id="__lottie_element_2949"><path d="M0,0 L430,0 L430,430 L0,430z"/></clipPath></defs><g clip-path="url(#__lottie_element_2942)"><g clip-path="url(#__lottie_element_2944)" transform="matrix(1,0,0,1,0,0)" opacity="1" style="display: block;"><g clip-path="url(#__lottie_element_2949)" transform="matrix(1,0,0,1,9.5,-38.5)" opacity="1" style="display: block;"><g transform="matrix(1,0,0,1,265.8349914550781,196.0659942626953)" opacity="1" style="display: block;"><g opacity="1" transform="matrix(1,0,0,1,0,0)"><path class="tertiary" fill="rgb(255,199,56)" fill-opacity="1" d=" M-75.93399810791016,0 C-75.93399810791016,41.9370002746582 -41.9370002746582,75.93399810791016 0,75.93399810791016 C41.9370002746582,75.93399810791016 75.93399810791016,41.9370002746582 75.93399810791016,0 C75.93399810791016,-41.9370002746582 41.9370002746582,-75.93399810791016 0,-75.93399810791016 C-41.9370002746582,-75.93399810791016 -75.93399810791016,-41.9370002746582 -75.93399810791016,0z"/></g></g><g transform="matrix(1,0,0,1,227.4499969482422,179.7969970703125)" opacity="0.5" style="mix-blend-mode: multiply; display: block;"><g opacity="1" transform="matrix(1,0,0,1,0,0)" style="mix-blend-mode: multiply;"><path class="tertiary" fill="rgb(255,199,56)" fill-opacity="1" d=" M-29.388999938964844,61.12799835205078 C-29.388999938964844,61.12799835205078 -0.800000011920929,61.12799835205078 -0.800000011920929,61.12799835205078 C-9.871999740600586,48.1879997253418 -15.586000442504883,32.76599884033203 -15.368000030517578,15.767999649047852 C-14.956000328063965,-16.437999725341797 6.644000053405762,-46.65999984741211 39.099998474121094,-61.12799835205078 C31.010000228881836,-60.45399856567383 16.84600067138672,-58.185001373291016 1.965999960899353,-49.4119987487793 C-8.182000160217285,-43.42900085449219 -14.60099983215332,-36.816001892089844 -16.93199920654297,-34.29399871826172 C-38.369998931884766,-11.107000350952148 -39.060001373291016,17.45800018310547 -39.09600067138672,21.52199935913086 C-39.16400146484375,29.052000045776367 -38.24100112915039,42.70100021362305 -31.198999404907227,57.54899978637695 C-30.6200008392334,58.770999908447266 -30.014999389648438,59.96200180053711 -29.388999938964844,61.12799835205078z"/></g></g><g transform="matrix(1,0,0,1,265.8349914550781,196.0659942626953)" opacity="1" style="display: block;"><g opacity="1" transform="matrix(1,0,0,1,0,0)"><path stroke-linecap="round" stroke-linejoin="round" fill-opacity="0" class="primary" stroke="rgb(18,19,49)" stroke-opacity="1" stroke-width="10.5" d=" M-75.93399810791016,0 C-75.93399810791016,41.9370002746582 -41.9370002746582,75.93399810791016 0,75.93399810791016 C41.9370002746582,75.93399810791016 75.93399810791016,41.9370002746582 75.93399810791016,0 C75.93399810791016,-41.9370002746582 41.9370002746582,-75.93399810791016 0,-75.93399810791016 C-41.9370002746582,-75.93399810791016 -75.93399810791016,-41.9370002746582 -75.93399810791016,0z"/></g></g><g transform="matrix(0.7009404301643372,0.7132198214530945,-0.7132198214530945,0.7009404301643372,352.9044189453125,284.6607360839844)" opacity="1" style="display: block;"><g opacity="1" transform="matrix(1,0,0,1,0,0)"><path stroke-linecap="round" stroke-linejoin="round" fill-opacity="0" class="primary" stroke="rgb(18,19,49)" stroke-opacity="1" stroke-width="10.5" d=" M-17.729999542236328,0 C-7.258999824523926,0 4.585000038146973,0 15.255000114440918,0"/></g></g><g transform="matrix(0.9999200105667114,0.012646161951124668,-0.012646161951124668,0.9999200105667114,390.0430603027344,197.63687133789062)" opacity="1" style="display: block;"><g opacity="1" transform="matrix(1,0,0,1,0,0)"><path stroke-linecap="round" stroke-linejoin="round" fill-opacity="0" class="primary" stroke="rgb(18,19,49)" stroke-opacity="1" stroke-width="10.5" d=" M-18.454999923706055,0 C-7.751999855041504,0 4.4629998207092285,0 15.423999786376953,0"/></g></g><g transform="matrix(0.7189708948135376,-0.6950401663780212,0.6950401663780212,0.7189708948135376,355.14410400390625,109.7294921875)" opacity="1" style="display: block;"><g opacity="1" transform="matrix(1,0,0,1,0,0)"><path stroke-linecap="round" stroke-linejoin="round" fill-opacity="0" class="primary" stroke="rgb(18,19,49)" stroke-opacity="1" stroke-width="10.5" d=" M-18.961999893188477,0 C-8.303999900817871,0 3.9130001068115234,0 14.916000366210938,0"/></g></g><g transform="matrix(0.02169032022356987,-0.9997647404670715,0.9997647404670715,0.02169032022356987,268.5293273925781,71.87721252441406)" opacity="1" style="display: block;"><g opacity="1" transform="matrix(1,0,0,1,0,0)"><path stroke-linecap="round" stroke-linejoin="round" fill-opacity="0" class="primary" stroke="rgb(18,19,49)" stroke-opacity="1" stroke-width="10.5" d=" M-19.53700065612793,0 C-8.928999900817871,0 3.2899999618530273,0 14.342000007629395,0"/></g></g><g transform="matrix(-0.6878203749656677,-0.7258809208869934,0.7258809208869934,-0.6878203749656677,180.39532470703125,105.89851379394531)" opacity="1" style="display: block;"><g opacity="1" transform="matrix(1,0,0,1,0,0)"><path stroke-linecap="round" stroke-linejoin="round" fill-opacity="0" class="primary" stroke="rgb(18,19,49)" stroke-opacity="1" stroke-width="10.5" d=" M-20.16699981689453,0 C-9.614999771118164,0 2.6059999465942383,0 13.711000442504883,0"/></g></g><g transform="matrix(-0.9994696974754333,-0.03256279602646828,0.03256279602646828,-0.9994696974754333,141.682861328125,192.02110290527344)" opacity="1" style="display: block;"><g opacity="1" transform="matrix(1,0,0,1,0,0)"><path stroke-linecap="round" stroke-linejoin="round" fill-opacity="0" class="primary" stroke="rgb(18,19,49)" stroke-opacity="1" stroke-width="10.5" d=" M-20.844999313354492,0 C-10.352999687194824,0 1.871999979019165,0 13.034000396728516,0"/></g></g></g><g transform="matrix(0.949999988079071,0,0,0.949999988079071,-52.5,-17.18450927734375)" opacity="1" style="display: block;"><g opacity="1" transform="matrix(1,0,0,1,159.00399780273438,356.30999755859375)"><path class="quaternary" fill="rgb(235,230,239)" fill-opacity="1" d=" M69.03900146484375,-17.832990646362305 C69.03900146484375,-5.705990314483643 78.86900329589844,4.124009609222412 90.99600219726562,4.124009609222412 C103.12300109863281,4.124009609222412 112.9530029296875,-5.705990314483643 112.9530029296875,-17.832990646362305 C112.9530029296875,-29.959989547729492 90.99600219726562,-66.12098693847656 90.99600219726562,-66.12098693847656 C90.99600219726562,-66.12098693847656 69.03900146484375,-29.959989547729492 69.03900146484375,-17.832990646362305z M165.65699768066406,-36.063987731933594 C165.65699768066406,-27.041988372802734 172.97000122070312,-19.728986740112305 181.99200439453125,-19.728986740112305 C191.01400756835938,-19.728986740112305 198.32699584960938,-27.041988372802734 198.32699584960938,-36.063987731933594 C198.32699584960938,-45.08598709106445 181.99200439453125,-71.98698425292969 181.99200439453125,-71.98698425292969 C181.99200439453125,-71.98698425292969 165.65699768066406,-45.08598709106445 165.65699768066406,-36.063987731933594z M-16.334999084472656,-60.40312576293945 C-16.334999084472656,-51.381126403808594 -9.022000312805176,-44.0681266784668 0,-44.0681266784668 C9.022000312805176,-44.0681266784668 16.334999084472656,-51.381126403808594 16.334999084472656,-60.40312576293945 C16.334999084472656,-69.42512512207031 0,-96.32612609863281 0,-96.32612609863281 C0,-96.32612609863281 -16.334999084472656,-69.42512512207031 -16.334999084472656,-60.40312576293945z"/></g></g><g transform="matrix(0.949999988079071,0,0,0.949999988079071,-52.5,-17.18450927734375)" opacity="1" style="mix-blend-mode: multiply; display: block;"><g opacity="0.5" transform="matrix(1,0,0,1,159.00399780273438,356.30999755859375)"><path class="quaternary" fill="rgb(235,230,239)" fill-opacity="1" d=" M69.03900146484375,-17.832990646362305 C69.03900146484375,-5.705990314483643 78.86900329589844,4.124009609222412 90.99600219726562,4.124009609222412 C93.16500091552734,4.124009609222412 95.39287567138672,4.031930446624756 97.24099731445312,3.223538637161255 C97.56790161132812,3.4258828163146973 79.81379699707031,-3.4246392250061035 79.42561340332031,-18.165802001953125 C79.1423568725586,-28.067792892456055 93.99019622802734,-60.281829833984375 92.9280014038086,-62.864990234375 C92.1059341430664,-65.07942962646484 90.99600219726562,-66.12098693847656 90.99600219726562,-66.12098693847656 C90.99600219726562,-66.12098693847656 69.03900146484375,-29.959989547729492 69.03900146484375,-17.832990646362305z M165.65699768066406,-36.063987731933594 C165.65699768066406,-27.041988372802734 172.97000122070312,-19.728986740112305 181.99200439453125,-19.728986740112305 C183.177001953125,-19.728986740112305 184.3912353515625,-19.6710147857666 185.4459991455078,-20.094987869262695 C185.90463256835938,-20.077096939086914 172.7239990234375,-27.977033615112305 172.29067993164062,-35.794761657714844 C171.71444702148438,-45.18135070800781 183.8048553466797,-68.58458709716797 183.2100067138672,-69.9389877319336 C182.60595703125,-71.31529235839844 181.99200439453125,-71.98698425292969 181.99200439453125,-71.98698425292969 C181.99200439453125,-71.98698425292969 165.65699768066406,-45.08598709106445 165.65699768066406,-36.063987731933594z M-16.334999084472656,-60.40312576293945 C-16.334999084472656,-51.381126403808594 -9.022000312805176,-44.0681266784668 0,-44.0681266784668 C1.1069999933242798,-44.0681266784668 2.669316291809082,-44.213626861572266 3.2330000400543213,-44.388126373291016 C3.5322155952453613,-44.395965576171875 -8.44867992401123,-51.58530044555664 -8.474899291992188,-60.54298782348633 C-8.494095802307129,-67.90699005126953 -1.15939199924469,-83.02633666992188 1.4520000219345093,-93.880126953125 C1.623566746711731,-94.03239440917969 0,-96.32612609863281 0,-96.32612609863281 C0,-96.32612609863281 -16.334999084472656,-69.42512512207031 -16.334999084472656,-60.40312576293945z" style="mix-blend-mode: multiply;"/></g></g><g transform="matrix(0.949999988079071,0,0,0.949999988079071,-52.5,-17.18450927734375)" opacity="1" style="display: block;"><g opacity="1" transform="matrix(1,0,0,1,159.00399780273438,356.30999755859375)"><path stroke-linecap="round" stroke-linejoin="round" fill-opacity="0" class="primary" stroke="rgb(18,19,49)" stroke-opacity="1" stroke-width="10.5" d=" M69.03900146484375,-17.832990646362305 C69.03900146484375,-5.705990314483643 78.86900329589844,4.124009609222412 90.99600219726562,4.124009609222412 C103.12300109863281,4.124009609222412 112.9530029296875,-5.705990314483643 112.9530029296875,-17.832990646362305 C112.9530029296875,-29.959989547729492 90.99600219726562,-66.12098693847656 90.99600219726562,-66.12098693847656 C90.99600219726562,-66.12098693847656 69.03900146484375,-29.959989547729492 69.03900146484375,-17.832990646362305z M165.65699768066406,-36.063987731933594 C165.65699768066406,-27.041988372802734 172.97000122070312,-19.728986740112305 181.99200439453125,-19.728986740112305 C191.01400756835938,-19.728986740112305 198.32699584960938,-27.041988372802734 198.32699584960938,-36.063987731933594 C198.32699584960938,-45.08598709106445 181.99200439453125,-71.98698425292969 181.99200439453125,-71.98698425292969 C181.99200439453125,-71.98698425292969 165.65699768066406,-45.08598709106445 165.65699768066406,-36.063987731933594z M-16.334999084472656,-60.40312576293945 C-16.334999084472656,-51.381126403808594 -9.022000312805176,-44.0681266784668 0,-44.0681266784668 C9.022000312805176,-44.0681266784668 16.334999084472656,-51.381126403808594 16.334999084472656,-60.40312576293945 C16.334999084472656,-69.42512512207031 0,-96.32612609863281 0,-96.32612609863281 C0,-96.32612609863281 -16.334999084472656,-69.42512512207031 -16.334999084472656,-60.40312576293945z"/></g></g><g transform="matrix(0.9999860525131226,0,0,0.9999860525131226,215.23675537109375,214.49888610839844)" opacity="1" style="display: block;"><g opacity="1" transform="matrix(1,0,0,1,16.5,-14.5)"><g opacity="1" transform="matrix(1,0,0,1,0,0)"><path class="secondary" fill="rgb(75,179,253)" fill-opacity="1" d=" M53.94599914550781,-66.31300354003906 C38.334999084472656,-100.49500274658203 3.859999895095825,-124.2509994506836 -36.17399978637695,-124.2509994506836 C-72.9020004272461,-124.2509994506836 -101.81800079345703,-104.51799774169922 -118.90899658203125,-74.81600189208984 C-139.1179962158203,-79.63200378417969 -161.6649932861328,-60.624000549316406 -158.6490020751953,-40.07699966430664 C-175.7530059814453,-30.492000579833984 -187.29800415039062,-12.187999725341797 -187.29800415039062,8.795999526977539 C-187.29800415039062,39.724998474121094 -162.23500061035156,64.78800201416016 -131.30599975585938,64.78800201416016 C-131.30599975585938,64.78800201416016 29.895999908447266,64.78800201416016 29.895999908447266,64.78800201416016 C67.31700134277344,64.78800201416016 97.64600372314453,34.45899963378906 97.64600372314453,-2.9619998931884766 C97.64600372314453,-31.917999267578125 79.48899841308594,-56.62099838256836 53.94599914550781,-66.31300354003906z"/></g><g opacity="0.5" transform="matrix(1,0,0,1,0,0)" style="mix-blend-mode: multiply;"><path class="secondary" fill="rgb(75,179,253)" fill-opacity="1" d=" M-111.68241882324219,9.86299991607666 C-111.68241882324219,-11.121000289916992 -100.13742065429688,-29.424999237060547 -83.03341674804688,-39.0099983215332 C-86.0494155883789,-59.55699920654297 -67.2524185180664,-77.56500244140625 -47.043418884277344,-72.7490005493164 C-35.86228942871094,-92.78866577148438 -17.40999984741211,-107.41500091552734 3.566999912261963,-115.93800354003906 C-8.597999572753906,-121.2760009765625 -22.035999298095703,-124.2509994506836 -36.17399978637695,-124.2509994506836 C-72.9020004272461,-124.2509994506836 -101.81800079345703,-104.51799774169922 -118.90899658203125,-74.81600189208984 C-139.1179962158203,-79.63200378417969 -161.6649932861328,-60.624000549316406 -158.6490020751953,-40.07699966430664 C-175.7530059814453,-30.492000579833984 -187.29800415039062,-12.187999725341797 -187.29800415039062,8.795999526977539 C-187.29800415039062,39.724998474121094 -162.23500061035156,64.78800201416016 -131.30599975585938,64.78800201416016 C-131.30599975585938,64.78800201416016 -66.5824203491211,64.78800201416016 -66.5824203491211,64.78800201416016 C-92.29441833496094,59.720001220703125 -111.68241882324219,37.06399917602539 -111.68241882324219,9.86299991607666z"/></g></g></g><g transform="matrix(2.861599922180176,0,0,2.861599922180176,186.2373046875,170.08399963378906)" opacity="1" style="display: block;"><g opacity="1" transform="matrix(1,0,0,1,0,0)"><path stroke-linecap="round" stroke-linejoin="round" fill-opacity="0" class="primary" stroke="rgb(18,19,49)" stroke-opacity="1" stroke-width="3.5999999999999996" d=" M34.66299819946289,-13.180000305175781 C29.535999298095703,-25.198999404907227 17.61400032043457,-33.625 3.7219998836517334,-33.625 C-9.26200008392334,-33.625 -20.518999099731445,-26.26099967956543 -26.121999740600586,-15.486000061035156 C-27.139999389648438,-15.817000389099121 -28.225000381469727,-16 -29.354000091552734,-16 C-35.132999420166016,-16 -39.81700134277344,-11.3149995803833 -39.81700134277344,-5.535999774932861 C-39.81700134277344,-4.76200008392334 -39.72700119018555,-4.010000228881836 -39.56800079345703,-3.2839999198913574 C-45.79499816894531,-0.006000000052154064 -50.047000885009766,6.51800012588501 -50.047000885009766,14.043999671936035 C-50.047000885009766,24.857999801635742 -41.279998779296875,33.625 -30.465999603271484,33.625 C-24.732999801635742,33.625 22.198999404907227,33.625 25.80500030517578,33.625 C39.19300079345703,33.625 50.047000885009766,22.77199935913086 50.047000885009766,9.383999824523926 C50.047000885009766,-0.8769999742507935 43.667999267578125,-9.642000198364258 34.66299819946289,-13.180000305175781z"/></g></g><g transform="matrix(2.861599922180176,0,0,2.861599922180176,186.2373046875,170.08399963378906)" opacity="1" style="display: block;"><g opacity="1" transform="matrix(1,0,0,1,0,0)"><path stroke-linecap="round" stroke-linejoin="round" fill-opacity="0" class="primary" stroke="rgb(18,19,49)" stroke-opacity="1" stroke-width="3.5999999999999996" d=" M-19.298999786376953,-8.47700023651123 C-19.31999969482422,-8.541999816894531 -19.34000015258789,-8.607000350952148 -19.361000061035156,-8.67199993133545 C-20.702999114990234,-12.916000366210938 -24.65999984741211,-16 -29.347000122070312,-16 M34.58599853515625,-13.411999702453613 C36.375,-9.303000450134277 37.367000579833984,-4.76800012588501 37.367000579833984,0 C37.367000579833984,0 37.37699890136719,3.2290000915527344 36.310001373291016,7.307000160217285"/></g></g></g></g></svg>