<svg xmlns="http://www.w3.org/2000/svg" xmlns:xlink="http://www.w3.org/1999/xlink" viewBox="0 0 430 430" width="430" height="430" preserveAspectRatio="xMidYMid meet" style="width: 100%; height: 100%; transform: translate3d(0px, 0px, 0px); content-visibility: visible;"><defs><clipPath id="__lottie_element_1455"><rect width="430" height="430" x="0" y="0"/></clipPath><clipPath id="__lottie_element_1457"><path d="M0,0 L430,0 L430,430 L0,430z"/></clipPath></defs><g clip-path="url(#__lottie_element_1455)"><g clip-path="url(#__lottie_element_1457)" transform="matrix(1,0,0,1,0,0)" opacity="1" style="display: block;"><g transform="matrix(1,0,0,1,126.04499816894531,359.3739929199219)" opacity="1" style="display: block;"><g opacity="1" transform="matrix(1,0,0,1,0,0)"><path stroke-linecap="round" stroke-linejoin="round" fill-opacity="0" class="primary" stroke-dasharray=" 86 36" stroke-dashoffset="-422.5978088378906" stroke="rgb(18,19,49)" stroke-opacity="1" stroke-width="10.5" d=" M0.04500000178813934,-91.8740005493164 C0.04500000178813934,-91.8740005493164 0,30.374000549316406 0,30.374000549316406"/></g></g><g transform="matrix(1,0,0,1,170.5449981689453,359.3739929199219)" opacity="1" style="display: block;"><g opacity="1" transform="matrix(1,0,0,1,0,0)"><path stroke-linecap="round" stroke-linejoin="round" fill-opacity="0" class="primary" stroke-dasharray=" 86 36" stroke-dashoffset="-416.58843994140625" stroke="rgb(18,19,49)" stroke-opacity="1" stroke-width="10.5" d=" M0.04500000178813934,-91.8740005493164 C0.04500000178813934,-91.8740005493164 0,30.374000549316406 0,30.374000549316406"/></g></g><g transform="matrix(1,0,0,1,215.0449981689453,359.3739929199219)" opacity="1" style="display: block;"><g opacity="1" transform="matrix(1,0,0,1,0,0)"><path stroke-linecap="round" stroke-linejoin="round" fill-opacity="0" class="primary" stroke-dasharray=" 86 36" stroke-dashoffset="-469.0469970703125" stroke="rgb(18,19,49)" stroke-opacity="1" stroke-width="10.5" d=" M0.04500000178813934,-91.8740005493164 C0.04500000178813934,-91.8740005493164 0,30.374000549316406 0,30.374000549316406"/></g></g><g transform="matrix(1,0,0,1,259.5450134277344,359.3739929199219)" opacity="1" style="display: block;"><g opacity="1" transform="matrix(1,0,0,1,0,0)"><path stroke-linecap="round" stroke-linejoin="round" fill-opacity="0" class="primary" stroke-dasharray=" 86 36" stroke-dashoffset="-417.45599365234375" stroke="rgb(18,19,49)" stroke-opacity="1" stroke-width="10.5" d=" M0.04500000178813934,-91.8740005493164 C0.04500000178813934,-91.8740005493164 0,30.374000549316406 0,30.374000549316406"/></g></g><g transform="matrix(1,0,0,1,304.0450134277344,359.3739929199219)" opacity="1" style="display: block;"><g opacity="1" transform="matrix(1,0,0,1,0,0)"><path stroke-linecap="round" stroke-linejoin="round" fill-opacity="0" class="primary" stroke-dasharray=" 86 36" stroke-dashoffset="-468.0365295410156" stroke="rgb(18,19,49)" stroke-opacity="1" stroke-width="10.5" d=" M0.04500000178813934,-91.8740005493164 C0.04500000178813934,-91.8740005493164 0,30.374000549316406 0,30.374000549316406"/></g></g><g transform="matrix(1.00001060962677,0,0,1.00001060962677,5.320666313171387,66.89105987548828)" opacity="1" style="display: block;"><g opacity="1" transform="matrix(1,0,0,1,210.56100463867188,92.60900115966797)"><path class="secondary" fill="rgb(75,179,253)" fill-opacity="1" d=" M111.00299835205078,-41.111000061035156 C93.45899963378906,-79.5250015258789 54.71500015258789,-106.2239990234375 9.722999572753906,-106.2239990234375 C-31.55299949645996,-106.2239990234375 -68.26499938964844,-82.9229965209961 -87.47200012207031,-49.542999267578125 C-110.18399810791016,-54.95500183105469 -131.30799865722656,-34.71699905395508 -127.91799926757812,-11.62600040435791 C-147.13999938964844,-0.8539999723434448 -160.11500549316406,19.716999053955078 -160.11500549316406,43.29899978637695 C-160.11500549316406,78.05799865722656 -131.94900512695312,106.2239990234375 -97.19000244140625,106.2239990234375 C-97.19000244140625,106.2239990234375 83.9749984741211,106.2239990234375 83.9749984741211,106.2239990234375 C126.02999877929688,106.2239990234375 160.11500549316406,72.13899993896484 160.11500549316406,30.083999633789062 C160.11500549316406,-2.4570000171661377 139.70899963378906,-30.2189998626709 111.00299835205078,-41.111000061035156z"/></g><g opacity="0.5" transform="matrix(1,0,0,1,157.6959991455078,92.60900115966797)" style="mix-blend-mode: multiply;"><path class="secondary" fill="rgb(75,179,253)" fill-opacity="1" d=" M-21.149999618530273,44.49800109863281 C-21.149999618530273,20.916000366210938 -8.175999641418457,0.3449999988079071 11.045999526977539,-10.427000045776367 C7.656000137329102,-33.518001556396484 28.7810001373291,-53.75600051879883 51.49300003051758,-48.34400177001953 C63.91899871826172,-69.93900299072266 83.677001953125,-87.30400085449219 107.2509994506836,-96.88200378417969 C93.5790023803711,-102.88099670410156 78.47699737548828,-106.2239990234375 62.5880012512207,-106.2239990234375 C21.312000274658203,-106.2239990234375 -15.399999618530273,-82.9229965209961 -34.606998443603516,-49.542999267578125 C-57.319000244140625,-54.95500183105469 -78.44300079345703,-34.71699905395508 -75.05400085449219,-11.62600040435791 C-94.2760009765625,-0.8539999723434448 -107.2509994506836,19.716999053955078 -107.2509994506836,43.29899978637695 C-107.2509994506836,78.05799865722656 -79.08399963378906,106.2239990234375 -44.32500076293945,106.2239990234375 C-44.32500076293945,106.2239990234375 29.53499984741211,106.2239990234375 29.53499984741211,106.2239990234375 C0.6389999985694885,100.52799987792969 -21.149999618530273,75.06800079345703 -21.149999618530273,44.49800109863281z"/></g></g><g transform="matrix(3.1682000160217285,0,0,3.1682000160217285,215,160.08399963378906)" opacity="1" style="display: block;"><g opacity="1" transform="matrix(1,0,0,1,0,0)"><path stroke-linecap="round" stroke-linejoin="round" fill-opacity="0" class="primary" stroke="rgb(18,19,49)" stroke-opacity="1" stroke-width="3.6750000000000003" d=" M34.66299819946289,-13.180000305175781 C29.535999298095703,-25.198999404907227 17.61400032043457,-33.625 3.7219998836517334,-33.625 C-9.26200008392334,-33.625 -20.518999099731445,-26.26099967956543 -26.121999740600586,-15.486000061035156 C-27.139999389648438,-15.817000389099121 -28.225000381469727,-16 -29.354000091552734,-16 C-35.132999420166016,-16 -39.81700134277344,-11.3149995803833 -39.81700134277344,-5.535999774932861 C-39.81700134277344,-4.76200008392334 -39.72700119018555,-4.010000228881836 -39.56800079345703,-3.2839999198913574 C-45.79499816894531,-0.006000000052154064 -50.047000885009766,6.51800012588501 -50.047000885009766,14.043999671936035 C-50.047000885009766,24.857999801635742 -41.279998779296875,33.625 -30.465999603271484,33.625 C-24.732999801635742,33.625 22.198999404907227,33.625 25.80500030517578,33.625 C39.19300079345703,33.625 50.047000885009766,22.77199935913086 50.047000885009766,9.383999824523926 C50.047000885009766,-0.8769999742507935 43.667999267578125,-9.642000198364258 34.66299819946289,-13.180000305175781z"/></g></g><g transform="matrix(3.1682000160217285,0,0,3.1682000160217285,215,160.08399963378906)" opacity="1" style="display: block;"><g opacity="1" transform="matrix(1,0,0,1,0,0)"><path stroke-linecap="round" stroke-linejoin="round" fill-opacity="0" class="primary" stroke="rgb(18,19,49)" stroke-opacity="1" stroke-width="3.6750000000000003" d=" M-19.496000289916992,-9.069999694824219 C-20.952999114990234,-13.107000350952148 -24.808000564575195,-16 -29.347000122070312,-16 M34.58599853515625,-13.411999702453613 C36.375,-9.303000450134277 37.367000579833984,-4.76800012588501 37.367000579833984,0 C37.367000579833984,0 37.37799835205078,3.5510001182556152 36.145999908447266,7.908999919891357"/></g></g></g></g></svg>